<mxfile host="Electron" agent="Mozilla/5.0 (Windows NT 10.0; Win64; x64) AppleWebKit/537.36 (KHTML, like Gecko) draw.io/28.2.8 Chrome/140.0.7339.240 Electron/38.4.0 Safari/537.36" version="28.2.8">
  <diagram id="vN2lK4EEtyk-Gk-79nKm" name="ページ1">
    <mxGraphModel dx="1042" dy="722" grid="1" gridSize="10" guides="1" tooltips="1" connect="1" arrows="1" fold="1" page="1" pageScale="1" pageWidth="827" pageHeight="1169" math="0" shadow="0">
      <root>
        <mxCell id="0" />
        <mxCell id="1" parent="0" />
        <mxCell id="H2uzbaCQYZfJrmvzTozJ-1" value="" style="shape=image;verticalLabelPosition=bottom;labelBackgroundColor=default;verticalAlign=top;aspect=fixed;imageAspect=0;image=data:image/png,iVBORw0KGgoAAAANSUhEUgAABFsAAAExCAIAAAAslTrEAAAAAXNSR0IArs4c6QAAAARnQU1BAACxjwv8YQUAAAAJcEhZcwAADsMAAA7DAcdvqGQAAAAYdEVYdFNvZnR3YXJlAFBhaW50Lk5FVCA1LjEuOWxu2j4AAAC2ZVhJZklJKgAIAAAABQAaAQUAAQAAAEoAAAAbAQUAAQAAAFIAAAAoAQMAAQAAAAIAAAAxAQIAEAAAAFoAAABphwQAAQAAAGoAAAAAAAAAYAAAAAEAAABgAAAAAQAAAFBhaW50Lk5FVCA1LjEuOQADAACQBwAEAAAAMDIzMAGgAwABAAAAAQAAAAWgBAABAAAAlAAAAAAAAAACAAEAAgAEAAAAUjk4AAIABwAEAAAAMDEwMAAAAABMz8BIJY/XoAAAaSJJREFUeF7t3X1wFMeBN/7untlXIZAQixEhG2NBvBcTMAFbEpaDFHP2SpHDVYwSH5VDVu6eigzE3Jm7rOwyxUPhl9VdRE55TNgrlyNE5XHZlv088RNHklOOEfnhSH7hDmGcyAc6ORssMCvxJrSrfZnu3x9tz61nd0dCSBjY76coatU9Lz09vbPT0y9DV3/rDqEJogkiCKGUKoyqNCfHkUjEeCIej8dz82edOTdii1oU5iyYP0+1nDtHL5w6d9YyZM+Lz7fbLOqs2BfmLXDNme3Isan2nNMjQ+fPDxcWzHn7rbcWLF7w4UcfijGhxbgglBLGueCCa5qmWhRFYZwnuNAShGiaIIRQTohGGCGEUmaj6gw1TEbjStzmtIbHolzQmbMcTON8TBOaJRwfo4TfkDNr6E8XLHFrJBJ1zHWqOWLOHIeVJMKj7Mz5uCZIZCRsSah2q504+JyC2SeDIZsll7NzCTVuzXUsuPHGk6f+nIiMkZiNxBWqESIIY1QhjDKmaZxzzokghBJKuaJQoVqjZM7sfMfc3L4PP/xyzq3Fty5hjgsRNfzRaOj33e9YRtniojkXLo7Mnr0gGknM+dKc02ODHw5+MDM3//TAeSVqI0RTFCIU7phlc+TYzp++YNGsKrFoRO6KEkYJZUyonBPKqGplipUKqgnBuSYoZ/F4glKVa0QIRilRLIRZeCxxkdOYRjQhhD3XJmxESSiRM/FEjOXOniGU+FhkVNWoRbDISIwnFIVYLFb7jJkzBdXCkfOJ2JhC1HhUKJTNmJkzY6YtNz83FDodjyasxEoF1RIaF4LzREyLM6bk5uTmOB2UsbFEYiwctVhU5rSGzp5mjOfOdAqL8vHp0w7FIqJMyKIlz77gghBC5QlmjDEiqGpRbA6FKPxC+LxGNKYqIkGsilXlFpEQTKiEMdVhIyweGQ1Hzoa1hLDnKsRC4hqfNcupaTwWF1TjQiXcSjWF8HiMCiEoSSiEqIpdsdBzcQdxWlWbEIIIjTGh2iwXySi1MZHgeY7cuEMLjZy1WmyxSNyqqIJozE6dFmVGXm6Ex6ggsWji/PnIDDVPIWERTiz+kudc9NSYOnb63AgfYw6HTYnz2JmYFrU6bbmUcEE0QpS4JqhCnHnWi+ELjBJLXGFC5YJRqlCqMEaF4LFYTEtojFJVtTosFqYwxhihhFBKKCWUqBZ1KBQShFBCOKE5M22KdVSLj42FSeQCFQk6w+nIy5thURRGOSFCURQiFKEklJni4/jHcRq3cJWet7OEQ7U4KKFECOtMcn70Y8pEPBFjNlVTiELoF/Lc8/Lm/tefjkZVcXEk+hfumwf//CGb7Ri8MDxnRs7YaCJ8dkzlSiQiVAtZeNO8OAtrNHH+4khklMzJy1GIQomIi2gknlDsMy6EI1arg2txlQqa4JTH7TbFYrE5ZthHRi+eOR912p2KEIrg+TNnf+ELX/zwz/81Gh9hFlXTYk6bdeRsLJqIz8ibYVXUXIctPhbJmz37YnTMYbcH+4OREW6faXHk2CjVzo1FmdVqtaqMJwTXKFUSGhUJqgpldkHen86cGkvEFUocKnFYVIvVoqgKoYJREdNiYwnNojpGR2M2u4No8fycXJUSq10JXTgd48TpdCiCUK44rPaxaPhijPM4n6FanVYlEk/kOvK/mFMoolqUhbltdCwxnEgQK3NGRkdm5eSGPh47ezbmzOc5BfYEjRE65lBtFk21K7Z4fCxO4ha7Go8LhThn2ueKuCLoWILETp0PxVWhWSyRaGSmw2LjtrGRUYtKrXYr45aZOXnhyIUoj3GmaSo9H4kIpjpzbKMXw0xwi80Wi/EZSk6eZa4qHJHYuTg5Z7VSh9UhYlGiaU6n82J0NEE0jcd5IuawqVo84bBZErG4IJRQQpmaSMStqt1qsUXDEZtVoYKrViKExokQglos1rEY0TSVUELVhBCCaBaV5ijESYRCqKYJEeXx0cRojEcjsSgXxMLs4WiUW0RC0axEWLk6g9nnz8znPB6nfCyR+PPpMzTHRqyMR8bmzXAVzpgdGT09Grl4cYTmz7gpP3cBEfzcueE5s+drGhuLxkYuXsjLn+G0z+ZcGY2GTodOEsJnzsibN7soHueJeNTuzLGoMy6Ong+Pnc7LczDGz54ZtttznLa5Y7GosJw98VG/4NYb5t/4/p/eiVnjmkIsQhEXInmz8xM29fz5iwsL3GeHTl/MOZ9jy/s4eG7sYszBHJSIvNm5s+fOiI5p0WhsxoycM6fOzs2bS23KsTP9BTNuGPn4gsNpOxe5yBOalamOGTmR0TGn3XH+3AUiLAlNYyqx51hmFlgvRIZUq2VslPI4mTHTwS2RnPwZw2eGbSqxWgmPcaJZBFXORqNjRLNRy1gsEY+LWTPsJKrZuJrDck4MDFktlrgSnzXfEleIUCzhi1Gnw6I47BdGLhbOnK2McDWuuG9ccPTEH605uV+Y43bGLAMfDMQ0HqdcYZQRSonCrLbTocHcAkdMHZtld46OXEzEBI3ZuBq15qmEEQfLHTp32pGvxkWCRolN2C+Gxbl4NLfASlROGbGqZJbVaYvYLpwas1CbqloiYxGFMgtTHDb7x0NDSo41TC/OuMHCrJRZLExV8u3O4T+FeMQSGRVEKESh1KqqNqvdImyKNhoZi1LNNdc1MniRR9W4luBKTOFCYRZmUx0zWFyLqcw6EhoNn4/FE4RTQlViUajdaiWCjUSiXFBFVZwzbQkamzXT9uXCuR+eHD57IcrHNI1ShSp5uTPjWjwWiWhcI1ThlBJGGRMWVRS653xw4jhz0hnWGZFwTFBCqKAqZYypMdWRsJ4/ez7GE3lznExRwpExK7E6rDN4TIycHdEoUazM4lA1qzaWGJtly418HI4xTclVFRslCcHiihYVhCjWHItQEgkem+mcdfFMxGmZOTQ0rNiV/Nl5F0cu8DGNEkYZIVbqsDqVBD0zNKTl2L4wf17w+HFLrj0uElamWqka1TSHM4cRNsORG744JgQVGte4RginTBDGmKI4LJbFX1hwqq//ozPDY3aVKNSpWmbOyr0QG9PiCZUohFDFxmbk5tqttpHzF2KMFBa4zv7p5Bjl4fAY0TihjAtOKCEKI5RQSq0Wi81iFVzEYjFOKCfCoqoLFyz40wfHo5SruTlEEHIhwhMJjZG40ChjqkoVhRJqJRYbcShjykU6K0KdcdWi2qyMJUg8rGnRBLWqCSo0KqwWywySF/konjivUWpViJq4GNF4glMihOBcCCIooYwyygijVFEYY4wTwoUQlDFGBaWUUqaojFFCCKOUMUUQLkicKOdmuZyKqorz4aET0XOjCccc218scp06cYJZbIQ4zpwajY7EuaCEMqaQ3Fy7YBH3jfNPfxy6EIrGNJJgZGZBvt3h4HGNaVQIolFBVIVRaqWKIJxZ6ML58y8MnD4VPDnqIJF4jCaERVFpjmJ3OOKRqEJURhlVGCFC41wQQSj95CacMkIoYYQSqjDGKLVYLJqmjVwYIeyTI7FYVapQqjJGKdc0woXQOBNUcE4oJQrViBCEWFRVVSxEUEaphVkSiYSiKIISQYSiKhpPxOKjF0fCglPOBaPEYrPEwlFCmMIUzuMaifJcYp+l5DpzEsNj0TMaI06NKrF41JFjI4QKTrnGueCcc0IIJVSeFyKPhFF5N8OoYrFaLYqFERqPxWJjUa4ltEScEsK1hCBco5yoalwTjCo2xcY4jcWiUR7jCrE5bJQKLc4FJ4QLQghhlDCmWFTGFIuiXjx/gXCuUSFUYbdYVM41HrfOtkeUsdl2S46WOH9BhMfITV+6sSA3//CRDxKEJ2hMtZH82U6LooxeiJwfjhPNonGqMUpXV686G7xIAAAAAAAAsoyS62DyiT0AAAAAAEC2UYhghHNjMAAAAAAAQFbgTAjUiAAAAAAAIBsJwhnqQwAAAAAAkK04xhEBAAAAAEC2ooQZgwAAAAAAALIDZYwRIYzBAAAAAAAAWYAJQlfdffvFU2PGmBTRaHR0dDQajUajUU3TjNEAVw1FUWw2m81mmzFjhtVqNUYDAAAAAHwqJ89KS+++fdS0RiSEOHPmzPnz540RAFe9/Pz8/Px8YygAAAAAACGEkNw8G6PUbCgR5/zEiROoDsE16uzZsx999JFA11AAAAAASItrTHCzm8UzZ87E43FjKMC1IxqNnj171hgKAAAAAEAIZZRpmR+fRyKRkZERYyjAteb8+fPRaNQYmmQ6GpFmzZplDLps05FOAAAAgGymqErGXnNCiNHRUdyBwXVACBEOh00KM6XXxlu5rpV0AgAAAFwrFIWxTLdYQgj0l4PrRiwWM6kRAQAAAEB2ElywTE+dhRCxWMwYCnBtikajqTWi1JBrxbWbcgAAALjmNDc392bQ3NxsXHo6/eY3v7nnnnuMoYTcc889v/nNb4yhE6NQyghJf2vFOcd7h+C6kUgkUmsRmR4HXP2u3ZQDAADANae8vNzr9S5L4fV6y8vLjUtPp6ampkcffdRQKbrnnnseffTRpqam5MCJUxTGjDeJANep1BoRAAAAAEzEyZMnjUEZAqfVa6+99uSTTyZXimR16Mknn3zttdeMS08MJYSW3FMcPhkxxhASj8f//Oc/G0M/tfPJfzEGmdr26D8ZgwCurC9+8YsWi8UYOmH33HPPJX3TZs2ahRd5AQAAwHWgt7d32bJlxlBCzKOmj14LIoRcZnWIEOK+KY+uqrzt4kdpJiYet0a05p5KY+indu99ZdMDa/X/by60okYEk/Dggw+ePn365ZdfTg50u90PPfTQP/7jPyYHTsRl1oh+9atf3XvvvcbQzFAjAgAAgMtx4MCBvLw8YyghhJBz586tXr3aGDptTKo9JlHTSlaKCCGXWR0ihHxl2ReYStLPvj2uyMhwpn/fv68s+X/jmumMjIyMjIzcd999eojb7ZaB8vMLL7zgdrs/s06SZ555Rl/3jTfeGBkZeeGFF4wLTRGZqpGRkY8//nj69gKEkNOnT+/atctQKiY9bA4AAADgGrJ69WrjwJ1PXcnq0HUvEYszC8kxBk/M7StXTPCfcc0MwuHwAw88oP/50EMP6Z9vu+22qqqqDRs26CEG3/rWt+S6P/7xj2+77bYHHnjgu9/9rnGhqfPOO+/86Ec/+n//7/9VVVX9+Mc/NkZPnccee+yNN94whmaNl19++eGHH9YrRbI69Oqrr06igehqM2fOHGNQhkAAAAAASKb3mjOMKZqci6NhFomMGIM/J++///7SpUv1P6urq48ePSo/v/zyy7m5uY8//vh/L/1ZN9xwg+zR9MUvflEub1xiSoVCoT179vyP//E/zpw5I/c4Tb761a/Onj3bGJpN9ErRgw8+eN1UhwghP/nJT773ve8lh3zve9/7yU9+khwCAAAAAAbJUymkTrQwCdF4nCXEZb10SAhhmMJr0jN6vfHGG7Nnz37ssccIIatWrfrCF77w61//Wo8dGRl58MEHCSGHDx/+1a9+dfjw4ZGRkcOHD8uudIcPH37hhRdeeOGFqqoqfWG32/3GG298/PHHcknZzvDggw/KPnWyP96Pf/xjucCvfvUrfRf33Xef3P6f/vSniTQBGbZ53333dXd3y551b7zxhkzhCy+8IFMuE/Pggw/+6U9/kp/lRkZGRp555hk9UHYUrKqqKioq0hOWnV5++WW/3//P//zPvb29V7I6dM899/wqydy5c5P/bGhoMK5wKf7hH/5h3bp1eqXoe9/73rp16/7hH/7BuBwAAADAVaCwsNAYlCFwWqXOLHf5laJoPMHsMxzG4AkTQlBKKaWyFjTpupA0PDz8zjvvfOMb3yCEPPLII0ePHh0eHjYuRAghZOnSpRs3bvzRj35UVFSU3Lnuu9/9bnt7OyEkNzd3z549e/fuLSoq2rhxo8ygXbt2JW8kNzd31apVP/jBD7q6unJzc8PhsB61a9euDz74IDc395lnnvnBD36QafzSM888M3v27K6uLj0kNzdX39E999wjU7h3714ZW1hY2N7eLgMbGhr++q//urGxsaioSK/t3HbbbX/913/9ox/9qLCw8F/+5V/k4fT398vD0feSbdxu95YtW9rb20tKSpLHFE2311577d4kp0+fTv7T7/cbV7gUQ0NDf/d3fycrRbI69Hd/93dDQ0PG5QAAAAA+b11dXZ2dncaXs/b2dnZ2Jt8JXwFbt25NnUpBVoq2bt2aHHgJKGFUnYJXPcr3RepvjZx01eiNN9647bbb3G730qVLkxuIDHp6en7/+9/LSoJJp7Xbbrutp6fn5Zdf/v3vf/9v//Zvs2fP1u+n5SijLVu26J/1cUcPPvjg7Nmzq6qqRkZGfD4fIeSb3/zmZ7ZLiIy9//7729vb9bqK3IJcfd++fTKFPT09t9xyi1zg5MmTe/bs2bNnT39//5EjR37/+98b+gH+27/9m1zr5MmTN998c3JU1tLHDn33u99NHlN0HdArRagOAQAAwNVsy5YtxrkdPiVvp6+Yu+++O+3Mcq+99trdd99tDJ0oyiizGgMvXXIbkV4vmoTHH3/8zJkzL7zwgt1uNxk1NGkTf43Uj370o9xPpbbPyJkVcnNzJzJ/w9jYmDGIkOQmqbQikTQvico2hqkUDBMtXAeGhobWr1+/fv16VIcAAAAAPheMMiY0Y+jEyf5ysu9cal0odYjRRBw5cmTJkiVvv/22MeLSvfPOO7Kflewd99FHH/3+979PXkA28z3zzDNyxJEM3LNnTzgc3rBhg9vtXrVq1TPPPJO8iiRnVjCGEiJXP3PmzIYNG1atWvXggw+WlJQcOXLEuFAGcqcPPvhgUVHRm2++KQMLCwszddu77j300EOGqRRkpSh5TsJrXTgcHrd6DAAAAADThHPOVOtltUXIcUSpgZmixvXUU08RQvSxN5fjgQce6O/v37t372uvvRaJRFKb0vbs2dPV1XX//fe/8847//7v/66Hb9y4cf78+e+///7//b//9zMrTMzDDz/scDhee+21//k//+eRI0cm/lrPSCTyzjvv/PM//3NXV5esBrz44otjY2Pvv/9+ds6s8I//+I+pUym8/PLLE8/SKaTXUQEAAADgukEpofduKPvT4QvGGELi8fif//xnY+indj75L//w0ETv0X/y0z3bHv0nY+hVZtWqVa+99tqPfvSjTI0/021kZORz3Hs2+OIXv2ixWIyh02bWrFnnz583hgIAAADA1WTmXAtds/7200fTDHQZt0ZkDDJ11daIfvWrX8lWqZ/97GeFhYW33XZbMBg0LnRFoEY03VAjAgAAAACD3LlWWr7+9jOXXiO6bnR3dy9ZsoQQ0t/fv3Pnzul+tasJ1IimG2pEAAAAAGAwc66N3vHd20b+GDXGZE2NCLJHao1InxRkOkxrjWhaUw4AAACQPWa57EyLX8ZkcwDXsmu3UnHtphwAAADgqiIEZzb1yvUjAgAAAAAAuHoIwpnT6TQGA2SZSbw463NxraQTAAAA4FrBicaisbgxmBAhhKahNx1ki+nohDYdg4imI50AAAAA2YwqhEUiaaZVEEJEo2nCAa5d0WiUc24MBQAAAIAsxilh0XAiOUgIwTmPx+Pnzp1LDge41p05c0bTNFSKAAAAAEBndyq0+O6VF/48qgdpmhaNRs+dO4dec3D9UVU1Ly/ParUqikIISSQ+8zjg2qKqqjEIAAAAAC7RjV+bTW8r/9of3/1PYwwAAAAAAMD17s7vfJUxohiDAQAAAAAAskBUiTOC2asAAAAAACBL5TBCMNAcAAAAAACyUY4tl1FmDAUAAAAAAMgGZ0NDjFBhDAYAAAAAAMgCjCeYIKgRAQAAAABANmKcMlXFXHMAAAAAAJCNYrEE0zhmVgAAAAAAgGzEGGcK3nwPAAAAAABZyWZjTBMYRwQAAAAAANlIJRZWMGe2MRgAAAAAACALWKiDjUbOG4MBAAAAAACyQGQszCKRiDEYAAAAAAAgC4xFEizHmWMMBgAAAAAAyAYaZdF43BgKAAAAAACQBXicsovxqDEYAAAAAAAgCzCisFk32I3BAAAAAAAAWUBoGuNWbgwGAAAAAADIAgolLBqLGYMBAAAAAACygEITTCGKMRgAAAAAACAL5DqtTNFQIwIAAAAAgGw0J38mE1FhDAYAAAAAAMgCqkJYIoaZFQAAAAAAIBs582cyhVFjMAAAAAAAQBb405mP2QznDGMwAAAAAABAFhgaG2Nnhi4YgwEAAAAAALJAZEQwC0WvOQAAAAAAyEY2ojAqmDEYAAAAAAAgC4g4Z1pCMwYDAAAAAABkAaFY6dcqlv3nO/3GmBRer7eystJms7W2tnZ3dxujp1ldXV1xcfG5c+f27t3b19dnjJ46Xq/3r/7qrz6XY5ygS02hy+VqbW1taWlpa2szxiXxer0NDQ3JIR0dHQsXLvR4PHpIKBSqqalJXkYKBAK//OUvOzs7CSE1NTUzZsxoaWkhhJSWlt5///1btmwxrpCkrq7O7Xbv2LHDGAEAAAAAMP1uvs3DyARe0FpXV9fQ0GCz2QYGBs6ePSsDA4FAIBAwLjo9Tp48OTAwUFRUtGvXrtLSUmP01Ons7CwoKFi7dq0x4qpxqSl87LHHjhw5ctddd7lcLmPcZ3V0dJSXl/f19ZWXl/v9fkJIfX19+ad6e3sPHDhgXCdFW1tbVVWVrEfdfffdhw8fNi7xWcXFxS+88IIx9IrweDxer9cYemULNgAAAAB8vignTKHjjCPyeDy1tbU9PT319fWNjY3T2kSTSWdnZ2Nj48aNG4eGhrZt2zbuzb3O6/U2Nzd3dXV1dXW1tbX5fD7jEinefffdkpKS5LYRXVdXV/IWPq9bZ5MUGvj9/kgk0tDQ8NZbbzU1NU1kFYN9+/aVlpb6fL5IJPL0008bYrdv3x4IBNxu9/r16/ft2yfPS01NTV9fn8vlKioqko1FmXi9Xo/HEwgE5Anq6uqa1uquwdq1aw3NYgAAAACQbSzEwsZtInrggQcIIU1NTcaIKy4UCj333HNOp7O6utoYl05NTU1DQ0N+fv7u3bv9fn9/f//q1avHrRX8/Oc/D4fDE2+EufImkkJZ0yCEyJv+lpaWPXv27Ny5c/PmzcZFP1VZWdnV1eXxeLq6uvSqwp49ex5++OH58+enrTzs2LGjvr6+qqrqueeeGxwcrK6ulrXEQCDQ1NTkcDjk50z1nPXr1z/yyCOyDaq+vj4UCmXqCujz+cY9cQAAAAAAl0rT4nT512899u/HjTFJ9u3bFw6H6+vrDeHyhvvkyZMVFRXhcPjIkSNNTU2hUCh5UEooFOrv79fD5bCW73//+ytXrtTbeeQoF/nZ5/OtXr3a6XSGQqH29va0LQzt7e1HjhxJe4Nu0NbWFolEtm7dmrx3/TMhZPPmzevWrfP7/XIMjM7v9y9durS2tjZ5YdlG1NHR0djYKP+UOSBzZhLHpedSb2/v4cOHa2pqnE7n/v375aAa8w1mSmHyii+++KJh7JDL5dq6dWtRUVF7e/urr76avK7X6122bFljY2MgEKivr9f/lMOBHn744Y0bN6buS7dv374nn3xSbz9MXj0Tv99/9uxZfZnt27cXFhamFjOpvb3d6XT29fW99dZbhlKRXA4JIT09PbK81dXV1dbWPvLII3oty+/3l5SU1NTUfP/736+srEzeiOw0KBNj2KB+RqTkU5mcw+ZrAQAAAMDV6SvLv8wEN4YauN3ugYEBYyghhJCCgoLZs2f7/f729vaSkpKtW7fK8A8//LCjo6Ojo2NwcLCkpGTnzp36KvJmdHBwUC7Q0dGh37D6fL7KysoDBw74/f533323trY27Tj+YDCYl5dnDE3h9XpdLtf+/fuT7+MN9/QLFiwghBQWFiYHEkL27t078ZYoaRLHdejQIb/fHwwGbTZbcXFxS0vL/v37Kyoq5OAWkw2apNDlcv3sZz+z2+0bN26866679N5oUltbW1dX17PPPnvzzTdv3LjRsG4qudZTTz3lcrnkunV1dcaFCPH5fP39/bI6JBuF1q9fv3LlSvl5+/btxhUI8fv9eXl5enXI5XIVFxcXFBRk6g9ZVVXV2toajUZra2vb29u3b9+e3GSkl8OOjo6SkhJ5aK+++qqhJa2oqKi3tzcUCr3yyit+v7+np0emRHrllVeSN+hwOOQyFRUV+lHX1dVVVlYGg8GOjg5CyKZNm5JHIhUUFBQWFnZ0dPT19SWvBQAAAABXLZ7Q6PKy5ccOHzPGJDE0jOgCgUBBQYFeaZGtFlVVVYbFZDtMTU2NrI0EAgGPx6P/maytra2/v19v/AkEAtFoNHWmsuSWGROyBSa1/cfA6/WmXaC5uXn+/PmGKplJG9Gkj0uuKJsyZFc3uQuTDUppU5iWbPYxhn5W2rnm5JHKoVONjY1tbW3btm0zDCSTTTGGNj3zNiKv17t+/frktjufz5efnx+JRILBYNqGQZ3H41m7dq1spSkvL5dH53a79YLX3Ny8ePFi+WdymSwtLX3qqacMDXeVlZVyI8kMG0w+6fv27XM4HDLP5cnq6emR+SbXklkhK5BpvzUAAAAAcFXxfHUxo8bASzA8PKx/Pnv2rNPplJ89Ho8ccx8IBG6//XZCyIoVK2TUb3/7W1lJCAQChsEhLperpKREb9DweDw2m02PnSZpq0OyPuByuSZS35Au87hk+4+c503eRptsULrUFJrr7OyU43lkGvRk6Px+/4EDBwzVIZ/PV1FREQwGX3zxxeLi4kzjhQw6Ozs3bNigV4c8Hs/KlSubmpp+85vfyC5nmXg8njVr1qxcudLpdAaDQT08+fPg4KBeDru6upxOp2yr+frXvy4bjvQlTSRvMJnb7e7v/2Sq+r6+PkNzZTAYlAeVqRILAAAAAFcdTWWEjzO3Qjgczs/PN4amsNvt8oPL5dq1a9eSJUsGBgYGBgYGBweTF2tra6uvr3/ppZei0ejq1asDgUDyPX1PT4/ei8nv97e2tiavK+n3uxOR2iNugjo7O4PB4F133WWMyODyj8vAfIPmKdRrX3odzBCSOueez+czLGwYg3To0CHDXHOyh9vWrVvD4fDIyEh9fX1tbe2+ffsMveba29tTd6dzuVyPPvpoe3u7nFYhHA6n7WxWV1fX3NwcCASqqqr6+/sfeeSRDRs2GBdK0dnZGQqFbr31VkLILbfcIrvMGRcCAAAAgCxGCWNCG6dGdOzYsaKiImPoZ8lxIL29vbI5yOl0Pvvss42NjY2NjR988IFh4b6+vqeffnrLli21tbWEkLKyMhkeCoXy8vI6k6TOPOZyuUzGNSXr7OwMh8NVVVWZhqZIad9II+3fv9/j8SS3e4TD4YULF+p/FhQU6J8v87jSyrRBXWoKpfLy8pqaGv1tQnqzT01Nze7du1Pbf2SnOMPChoFGqS94DYVCjY2NyXWM+vr6DRs21NfXP/fcc++++259fb2ciS51d5LL5WpqahocHNR7srW2ttbU1KSestraWvl24KqqqoaGBkMGut1u/XN+fn44HNb/PHDgwLJly7xer9vtTvtypNTGNxPBYFD/Lng8Hrfbfe7cOeNCAAAAAHANoQnlC18sHD59xhiRpLCwcNWqVadOnTp+/DNT0lVXVzudzkgkcuedd/7gBz9wOp1PPPHE0NCQy+Vas2aNqqqqqt5555233nrrvHnzVFU9ceLE0NDQ9u3bS0pKysrKysrKvv3tb8+ZM+fgwYNvv/223GZVVdXy5ctzc3Pdbvfy5cs550NDQ8k7/eEPf7h48eKf//znJ06cSA5Py2q1rlq1qqSkJC8vb968ecuXL7/33nvffPNNfQG/33///fdTStPeKx8+fPib3/zm3LlzX3/9dRny1a9+9dZbb/V4PCtWrPibv/mbL33pS7/+9a/lupM4Ltlb7Gtf+9qsWbNOnTrlcrmSD8p8g1JqCnU5OTmPP/74H//4x6Ghoerqatlb7J/+6Z8YY4aN6EpLS5csWXLHHXeUlZWtX7/+9ttvl10KZU0sOd8Mqqur+/r6kovHokWL5s2bZ7KKrFE8/vjjg4ODyeOXTpw4sWjRom9961uG7m09PT179+5Ne5qqq6tVVZWJvO+++yoqKg4dOqRnyIULF6qrq91u96xZs5544onkyhLnfM2aNcXFxTfddFNZWdny5ctlzsj5KvQEPPDAA8ePH5fHkpeXJ0vULbfc8r3vfS8nJ+cXv/iFPHCTtQAAAADgqjV7jmuc17PKV9kEg8GHHnootTnF7XY3NDTU1NQMDg4+/PDDcpBJd3d3R0fH0qVLGxoaKioqnn/+eUJISUmJnPXL4XBUfqqgoKCjo0Pvi9XW1rZ79+78/PxNmzY1NDTU1dUZeutt3ry5srKyp6dngm0sLS0tcorn2trahoaGTZs2JbfwyPtvOWNycmAyw7tQm5qaenp6li5dqideb9yYxHHJN4TK9o2GhgbZEKQz2WCyTG9rle9uuvHGG/UQuUzajcgJCWpra5ctW9be3v78889v2LAhdU6LKbR58+Zdu3a9/fbbqbOo79ixw+l0+v3+5JYi8/cCDw8Py5qVLB7J787q6+vr7e11u92pXea6u7tl90WZyYsXL06OTaulpaWjo8PtdsvJu3fv3p1pHBoAAAAAXBMoFXRFya0fHDV7H5Hs3bRz506PxxMOh3fu3DnBCskUkhOaXfnXvLhcrtbW1gMHDmTq9/W5S02hnELNuFyK1DnWUtXU1GzatCkcDv/0pz81ufUPBAK//OUvkxcwn2vO5/MtXLjwX//1XzPVc1wu12OPPfb8889PpKSNO/egLDzjzjoIAAAAAFnoL265mX6t+Nb/fH+cGpFUWlrq8Xi6u7sz3chOH6/Xm5ub+9577135XdfV1eXk5GRqWrkaXP0pnFaZakRer7e8vHz+/Plut1ufIxsAAAAAINlX/uIWurJ0ed97Zu8jAriaZaoR+Xy+1atXB4PBt956y/wdRwAAAACQtb7ylSV0RemtH7w3oTYiAAAAAACA68lXb/kqI5fzilYAAAAAAIBrloVZGKWoEgEAAAAAQDay2KyM0vEn4IarUGlpaSAQSH09K8DVD6UXAAAArhI2p52hQnSNmjVrlsfjmTVrljEC4Ko36dLr9Xqbm5unsDa1efPm1DetAXzu6urqAoGA3+9Pfd2cOa/X25UExfuaMOUXoim/VE4Vk4Lt8/mSi64h9qoy5ecLPneq3cKmaSCRx+NJW1wCgYCcHAyudZ/jqezq6vL5fMbQFJ9jCidngsc1ET6fr62tTf6uXG2/iJNWV1fX0NBgs9kGBgbOnj1rjL50paWl69ate+ihh4wRAJ+3kydPDgwMFBUV7dq1axJf4Z6eno6Ojo6Ojg8//NAYB1fWuL9EmS5Eme6jxjXll8opZFKwe3t7ZaG98u9ZuSSZzhdc26gYZxxRIBDQ6+ttbW1+v9/lchkXSmft2rWf+xtgSktLm5ub29vbu7q62tvbt2/fblwiHY/Hs337dnk3abg9lRvUc6OmpiY5NhOTDZpEAUyafEvv8PCw/HU5fvx6mEzS4/HU1tb29PTU19c3NjZOyU9md3d3b29ve3u7MWIaJD/+NL89mj4+n0/eYMlmhIncbJlf9Hw+n7zAGqJM1jK0YEwwGSbMr6JTe8gul8vv91/qb4pJRplssLOzs7GxcePGjUNDQ9u2bZvgL6+uq6ursbEx+Zsij0juffv27cnl0OVybd++XU+G4YdetjboGZKayVPF5FSaZJTJWZ7cPYAkE7Nv376urq7k3Mi0r8uR6UI0ufso80ulPCK/358caFI2PvmWdnV1dXU1NzenHu+lZpRJwZZRjY2NAwMDeuBVKNP5ysSkHJpcbeAK40QwQYQx+LNCoZC8rxocHCwpKdm5c6dxiatVbW2tzWaTFbkjR45UVFTU1dUZF0qxdu3a4uLi4eFhYwQh27Zty8/Pb21t9fv9g4ODmzZtSm32TWWyQZMogElbuXJlMBiUP4eNjY2hUMi4xDXogQceIIQ0NTUZIy7Pli1brszbjfXHn5/X6SgtLa2srFy0aJExwpTJRa+urq6ysvLAgQN6lP7E12Qt6aWXXvJ/6tChQ8lRl8rkKjrlh7xz586lS5fK35QDBw5UVFRMpHpgklHjbjAUCj333HNOp7O6ujo5fHLC4fCKFSsIIUVFReFwWA///ve/X1FRIetCBw4cWLp0qb67mpqahoaG/Pz83bt3+/3+/v7+1atXT+SHbxJMTqVJRpmc5cndA+g9uyoqKsLhcEdHR0FBgQw32ddlmsILkcml0uPxuN3uvr6+oqIiQ1SmskEI6evr6+jo2L9//+LFixsaGpLv2iedUVNbsK+8SzpfJuXQ5GoDV5gQ47UREUKGh4flfdWWLVv279/v8Xg8Hk9dXZ2hN47f75dPCOSj0MrKyuSnC4arvHwI0dXVlfqkJ+2DNNnonGmtTOrr6+vr61taWjo7O1955RVCyMWLF40LpXjllVeqqqp++ctfGiMIefjhhzds2CA3uGfPHkLImjVrjAulMNmgSdSUM+Rh8lNA/alt2mbAmpoa+fhHPiLK1H9j3759+lMlkw16PB7Z8Nje3l5XV9fe3p5cNpILQPJPl2EtPXwi5CEnP/g0Kb2fWTMdk9yYROk1OS6TPByXy+V6//33jaEZUqjvqLm5WZ6R5ERO7nxNh/nz5/f19RmqEzLxMm+bm5vlBz3xJnlo0mJjcr4uh/74M/mGL3nvhiepU54M+UN7qQ2GJhe9qqqqYDDY2NjY2dn5+OOPh8PhtWvXjruWdPz48c5PXWYV0eQqOu4hb968OfUxf6bEu1wuj8cj3/gsz2YwGLzllluS1027wUwZNZENypITDodvvvlmQ/gkHDt2rKioyOVyud3uAwcO6OELFy7s6+t7+umnZTKqqqr0t1p/5zvfCQaDW7dubWtr6+zsbGhoqK2tNW+hLS0t7erqSr4gTPACm+lUmmeUyVme3D2A1+utra3t7e2tqakxNLOY7Gtcqb9EJheiidxHZZL2UimtWbMmHA63tra6XC7DT3mmskEIGRgYaGxs3LFjR21tbSgU+s53viPDLzOjprBgp/1pm9xVVOa8/sHlciVfmTOdL/N9mZTDTFcbuPKEEIxrmjE4s7feeosQcuONN7766qvJv3/yuUJvb28oFHrllVf8fn9PT4+8DkqyEEgFBQUOh0Muk1xXlg/SgsFgR0cHIWTTpk3JvysFBQWFhYWyg+nEn/TIb2ZdXd3DDz+8f//+trY2Y3QKk2t9clR+fv5n4jKb4AavgIKCgtmzZ/v9/o6OjpKSko0bN8rwDz/8MFMzYE1NzaZNmxwOh/6I6OGHH/7vLX5KXkZPnjwp/zTZ4N///d+73e7W1taWlpbi4mKn06lHyb5e8knqu+++W1tbq1/akte69dZb9VXGpR9ye3t7SUnJ1q1bCSEmpfczK6cwyY3JlV6T4zLJw0xkp3O53/z8fPlZ/9nLlMJDhw75/f5gMGiz2YqLi1taWvbv319RUSFjJ3e+poPb7c7UlWL27NkdHR3Lli0LBoMyh2W4SR7Ky5Sh64gu0/m6wqY2GW63W96FGCNMmVz09Ip3aWlpKBQKBoPz58+XUSZrScXFxT6fz+fzZXrCMnEmV9FxD3nBggWEkMLCwuTATImXT9DHxsb0kHA4LHehS7vBTBk1kQ1KwWAwLy/PGHrpBgcHc3Jyvv/97xsy7dy5c2mHrHi9XpfLtX///uRr47jXye7u7lAolHxBW7p06UQusJlOpXlGjXuWL/UeoLKyMhwOP/744ytWrPB6vcnP7MfdVyZpf4lMLkTj3keZMLlULl68+NixY/IEff3rX0+OylQ2koVCoQMHDui1qcvPqCkp2Jl+2qRLvYr29vbK76zdbg+FQitWrFi2bJn8oTQ5X5L5vtKWw0xXG7jyOBdMiHF6zSUrLy+XJSMUCh05cmTp0qUyvLS01OVyHT58WJ7gzs5OOZhPfwqYfNZzcnIaGhrk0yZCyNy5c2V4RUVFKBSSTxq2bdum705fa9u2bXqUvpY5r9cbCARqa2uHh4dldW6qyKvJ66+/boy4iuXk5GzZskU+Y+vt7S0uLpbhfX19ejPgSy+95PF49CdY9957bygU2rhxo3xEtHPnTr0elUwG6jmcaYOygbG9vb2lpaWtra21tTV5IytXruzp6ZFPUuXTprKystS1nn/++eS1xiUP+emnn+7p6ZEl1qT0mjPJjUmUXvPjypSHqcMwJL3TufxalZSUyM+1tbVyg5lSGAqF5LM6j8fT2tra1tb2wgsvEEKWLVs2ufN15Q0ODsqfsZaWluRbgUx5qF+mMv1gpz1fV97UJqOwsDAYDBpDL0XyRU+vyWzfvv2pp56Sv/1p7+YNl0rZkaaoqGjhwoUrV6586qmnpq8iPe4hNzQ0+P1+vT0kVXLi5ddk4cKFshSVlpamHm/qBk0yaiIbnHLHjh1bvXr10aNHkwObmpqCwWBDQ8O+fftSbxn1R10Td/To0WXLlunH5XQ6J3KBzcQ8o8zP8iTuAZYtW3bs2LGmpiZ5CQ0EAnoRNd+XudRfIpML0bj3UZPgcrnkoRFC+vv7U1sj05YNA9nsI6cJnaaMulSZftqkyV1FV6xYUVhY2N/frz/dkPX5TOdLMtnXRMrhtXhXeT0RnI8/jqigoEA+zAsEAiUlJfqTnq6uLqfTKa+e8kS++uqrxpXTyfQ9cbvd/f398nNfX5/h4UEwGJT7Hfc5U7LOzs7y8vJHHnkkGo02NDSkPgObnNLS0tWrV+/fv/8yr1BXWHLODw4O6s/75chI2eZ7++2368/k5Ek5evSonufy2ZK+EVk2ZDfinp4e/TKRaYM33nhjckt6d3e3vil5vS4pKdFv8T0ej81mG3ctc8k9lM6ePasf8uRKr0luTKL0mh9XpjyUTTqpCCGNjY3l5eXyx6Cjo0N+rq+vlxs0T6Ek09DX11deXt7Y2Giewkzn6+qRKQ/HlfZ8XXlTmwyPxzM4OGgMnTDDRc8wc3qmzkipl8rXX3+9vr5+w4YN9fX1GzduTO6EM+UmcsiZbm7SJr6trc3j8cih/w8++KBskzSsZdigeUZNZINT69ixY06n0zB2KxQKbdiwQT7yqK2t3bdv37g93Mz95je/0W9M77777nA4bFLtnAiTjDI/y5O7B8jPz3/yySfLy8tramqSi6j5vkxk+iW6kuTpkDfcH3zwgdvtNgxZSVs2zE15Rk2C+U/bpV5F9cMvKCg4dOjQ3Llz7Xb7BL+VJvsatxymXm3gSqOMWa1WY+hnuVyuysrKysrKgoKCjo6Oxx9/XIbL/t+yZfyWW26ZSJv456W7u3vLli2yq4Yx7tJ5vd5t27YNDQ3t2LHDGHcNcrlcu3btWrJkycDAwMDAQOpVzOFwGEJ0smzIq6r+9oBxN2iip6cn+S7f0Chxmex2u/550qXXJDemkEkeyiadVJ9Z/0qZ1vNlEA6HL6lTgUkeZiG9pUL2pZQNNYsWLZrgjW/qRU8vcjt27CgvL5edQAxPu1LXkrcs+k9+KBR69913J5iGSzXlhywbIevr62Vpf/LJJz0ez7jtJ+YZNcENTuEN9NNPP11eXp72uVJLS8uGDRv8fr/b7da7daV2ApwI+bRIPoBYsmTJkSNHjEtcokwZNcGzfKn3AO+//74spclFdIL7GlfyL9F0yHSplKdj7dq1Pp9PNrIZ+qyalA2doTBcZkZNYcGeKvJOQB7myMjI/PnzCwsLo9GocblJyVQO015t4AqjChn//azygbF8BmCYt+rAgQPLli3zer1utzttm/glTZoRDAb1+U/kjCjnzp0zLjRZqV9FKbWmbkLOG9HQ0PDWW29t2LDBGE3IpW7wCkvuaZCfny/nk1mxYoXT6Xz22Wdl/6IPPvggeZVgMLh06dJMuSfLRk1NTTgc/tu//VsZaLLB8+fP691mUi/HoVAoLy8v+S5fXprN15ogl8tVXFws+1ZJ45beVCa5MYnSa3JcJnk4aVObQpPzNU3kwF9jaGbTkYeTkDpFb0FBQdrfV5N5mS6fvBTrfSnXrVtHCFm3bt24jWYmF71QKKR3vJEjCfVqp8lahjHH+oVoyk3wkFOv2CaJ17vNfPjhh48++mg4HJZdTJOlbtAkoyayQblKppEhU66zs1N/yi67q1VVVaW96Jk7evTo0qVLZVfVtM0OqRllLm1GTfAsm9wDpJVco9CL6MT3ZSL1l2hcl3QfZXKplF315ANuOdjykgblysRXVVWFw2G9nn85GTVVBXsSP23mQqHQzTffPDw8fOjQIdnxYQofqBnKofnVBq4wVVHGrxRl8vrrr69bt279+vWpnY5+97vfVVZW7ty589133yWEjI6OjjtT4f79+2trawOBwMDAwMqVK5ObHSZn8+bNH3/88cjISG5u7l133ZU80EXy+/0lJSWFhYXJDfp1dXVz586V3/OFCxf6fL7Tp0/LBVpbW51OZzAYHBsb02d9aWxsnPQGTaKmw+joaHNzsxyDXlJSIkdtyrte2Z5eWFgoL5Hl5eUffvhhX1/fr371q02bNrW2tr711ltyYGtqCkOhUHt7+7p163w+X2Njo8kGu7u7g8FgVVXV6OjoxYsXDcNOXnzxxU2bNjU3Nx88eFCetffee6+vr898LXNOp9Pr9RYWFsofADmXi2RSejMxyY1JlF6T4zLJw0k3qWdKocfjufHGG+WzOq/Xe/78eb1iY5JCk/OVvMwUOnz4sKzBTrBBzDwPS0tL9e5MspCk9nfKRE4p4ff7J7L8oUOHwuHw+vXrc3NzR0ZGKisrXS7Xiy++KGN7e3uXLVsmawjyqeRlnuVMWlpakr+2Xq9XjngZ9xBMLnoHDhyQ3/re3t7Kykqn06mXeZO1+vr6iouLN2/efPz4cXkh2r9//3/v7xKz1+QqOpFDTnvFNkm8x+NZu3btwoULPR5POBxua2sznKm0GzTJqHE3KKfGlj+phvApJC8L8jZ92bJlbrdbDlKX3dVqa2ubmpr2799/8uTJ3Nzcm266KflXL5MXXnihoqLi7//+7+VxGWLTZlSmU2mSUeZnedx7gLR6enpKSkrk+Uououb7Mpfpl8j8QjSJ+6hMl0o5mmv37t36uZBftP9eLTN5Lux2u5xcR+8LcJkZNVUFO9NP26QNDw/Pnz+/v78/FArJ58h6sTE/X5mYlEOTqw1ceYyxydeI+vr6ent73W53aqej7u5u+bWRDyQWL16cHJtWS0tLR0eH2+2W39Ldu3ePW87MLViwYNOmTQ0NDZs2bUq7wRMnTqQOGy0uLq6srCwpKZFX4crKSr19U941yhTqkte91A2aRE2H4eHhwcHBhoaGysrKnp4e+b6C7u7ujo6OpUuXNjQ0VFRUyPH9JSUlciq2tra23bt3Dw0NVVRUpB6v7umnnw6FQqtXr3a5XOYb3LNnTzAYrK2traurM7TMyH3l5+fLs1ZXV6c/fzKsNfGHym63W74/YXBw8OGHH06+2zApvZmY5MbkSm+m4zLPw8nJlEI5H4O87ifPxCBN7nxNh5aWlmAw+NBDD03w0bJ5HtbW1srnl3ohudQ3IU7k/MrnBTt37jx79qzMJfleF/2m5Pnnn5ezEhUWFsoL5mWe5SlnctF7+umnOzo6Vq9e3dDQMH/+/OQyb7LWtm3bjhw5UlVV1dDQsHr16o6OjrQdRSaYvZd5FU17xTZJ/I033ig/79+//+GHH059epV2gyYZNe4GN2/eLC/X09oAe+7cuZUrV8pvwcqVKzs6OvR7spaWFr/ff/bsWfmV2bRp08KFC43rpyNHdHg8nrRd5tJmlMmpHDej0hr3HiCtpqamnp4eeb5kbqQtopck0y+R+YVoEvdRmS6Vd999t7xo6yGyKjKReU3kuaioqDh27FjyxCGXk1FTWLAz/bRNWjQadbvd8qFnMBh0Op16QTU/X5mYlEOTqw1cYYIL+o3Ksrf/vwl1GUqrrq6utrY2tfYP0y3Tc5dM5Nz5+jj7q4EsPHJmZ2PcFYHSe0mm8HxdaumVXC7Xzp075UPinTt3Xv5P6eQEAoGCgoKJ3EnAJCB7Jfl1k3WAid9o6l8u/c9L/ZbBdeAquVSmZVKwDc1WyVPGAUy3O+5aTe+qKnvrd5dcI/J6veXl5fPnz3e73T09PROpJcPUutR7yqukRiT7Rci3yC1btkxOZj3BJpqpgtI7cdN0vi619CYrLS31eDzd3d2p/YuujEAgEI1G5QBZmHLIXsnr9U6uJ6rsYKb/+corr1zqFuD68LlfKtMyKdher1e+/EdC5zG4ku78ywpa4V31zsE0jdrmfD7f6tWrg8GgfI20MRqmn8vlWrFihXw3lDEunaukRhQIBOSwy2AwODg42NTUNMH0TyGU3ombpvN1qaX3qtLV1ZXcrQimFrIXAACusDvuWj3JGhEAAAAAAMC17o67VjMhuDEYAAAAAAAgC1BCGOfCGAwAAAAAAJAFKCVoIwIAAAAAgCwlBFHcRQtOnbj2BjfDFbZ58+bZs2cfP37cGAEThjxMhty4blyvp/J6PS4AADBw3/QlJq7xTnOBQEDOojZxXq+361P6S4LBRGlp6bp16x566CFjRAbmJ8Xj8UzwJZvXrtSilSkPr7/cmMj3K1NuXAd8Pl9bW5s8/NLSUmP0dWfSp/Jzzyjzr96kjwsAAK45lBBGMteIfD6ffmeTzORXZPq0tbXJm+yuri6Tu+2JOHTokN/v9/v9xogJmMJkSFO+wenQ3d3d29vb3t5ujJiUtWvXZnoF0JTnxpRvcNIy5aFJbpi4So4rbTIm8v3KlBtXibTHNRHyDYPDw8MdHR0dHR3Z0LwwuVN5NWSU+VdvcscFAADXIs4545kbiXp7e+XPVU9PDyGkp6dH/vnhhx8aF51+w8PDxqDJCoVCnZ2dk3g15NQmQ5ryDU6TLVu2PP3008bQqTbluTHlG7wcU5iHV8lxpU3GBL9fU5gbUy7tcU3EypUrg8FgfX19Y2NjY2Pjtfi2pUmYxKm8JjJqEscFAADXIkEIE5kbiTo7O+XPVVdXl3xcKv/s6+urq6szdHXw+/1dXV0ul0vvNLV9+3bZpuT3+2W45PP52tvbu7q62tra6urq9PAJCofDxiBC9H1t3749OXwS+zJPvC5tMi5H6gZramr27dsnk9Hc3Jyc28nHVVNTo4dnSrzJ+dL7ODU3N9fV1cnN6tmY3E5oeFju8XgCgUBXV1d7e7tc0dBFKvWkyK1VVlbK4iSl7ViVmhuXKXWDabPXPDdMSpQhN/Rwkzw0zw2Xy5XcrairqyttAU49LhNpi824hzwRE09GptyQ0p4UKVPOG8p8csrN8zDTBpNN/Lgkl8v1/vvvG0OnNOflWvJ4m5ub5YdMRXTi+5pIbhiYnEqTkyJNVUaZ54a+YltbW/KV3PyrZ3JcmVI4kUMGAICrFqVUWbBw/umPhowxn7Vo0aKysrKDBw/qfRs++uij6urq/Pz8119/XYb84Ac/OH78+Msvv0wIqa6uLigoSCQSe/fuHRkZqaiocLlcBw4ckD8nlZWVr7/++ssvv8w5X7du3ejo6B/+8IfP7C+d6upqQsirr7565513RqNR/Qm03NfIyMgvfvELVVXvvPNOSunhw4cnsq8HHnjg+PHjb7755n/vxjTxJsmYtEwbrKmp2bRpUywW+93vfnfixImlS5euXLmyra1NVm/WrVvX39//zjvvzJ8/v7y8/NSpU/LUZEq8yfk6f/78f/3Xf7ndbiHEggUL/s//+T+jo6MVFRVym8PDw0ePHj148GBZWdnQ0NCrr76qp/zxxx93u93PPffc22+/feeddxYWFuqZmemkyK2pqrpgwQK/33/w4MGDBw++9dZbQ0OflMBMuTFpmTaYKXvNc8OkRCXnxu233z5v3jw9NzLloXlu/PCHP6ysrDx+/Ph//Md/HD9+/Pjx46+//vrlZFSmYmN+yMatfJZ5MtJ+vzLlhslJMf8uy8KmKMo777yjadptt92mXwFM8tBkg+MeVyqPx7Ny5Up5nRweHlZVddGiRS6X68SJE1Oe83IvFy5c+I//+I+ysrLf/e53drv9tttu27t376T3ZZ4bmZicykwnZcozihBikhuqqiqKIjNz5cqVS5culYk0/+qZHFemFJocsr4uAABctb7wpQWMMcUYPAGhUOjIkSNLly6Vf5aWlrpcruSrf05OzpYtW2QrU29vb3FxsQxfuXJlT09PY2OjjOrr6ysrK9PXMnHy5MmTJ0/KD4afmZycnIaGhs7OTtkpfO7cuTJ80vvKlHjzZExOpg3ee++9oVBo48aNjY2NO3bs2Llz58aNG2VURUVFKBSSHU62bdtGCCkvL9dXTJt4k/Ml+ziFw2GPx9Pa2trW1vbCCy8QQpYtW0YI6evrS9sDyuPxeDye9vb2lpaWtra21tZWwwJpT4rc2tmzZ2ULpNTX16evlSk3Ji3TBjNlr3luZCpRhtx4/vnnk9OQKQ/Nc2PhwoWyoiUbZuXu9HUzHZeJTMXG/JDNTSIZmXLD5KSY5LyUk5Ozbds2/bj0K4BJHppv8FKPS45IkUW9pKREfq6trZWx05Hzg4ODvb29hJCWlpaBgQE9fHL7Ms+NTExOZaaTMk0ZlSk3+vr65HnfsmXLSy+95PF4ZDOR+VfP5LgypVBKe8gAAHD1Y5QxkXkckbmuri6n0yn7V3z961+Xj1T12GAwqH8eHBx0Op3ys8vlKikp0fskeDwem82mL2lix44dO3bskB9aWlqSo5L3lWzS+8qUePNkTE6mDbrd7qNHj+rd67u7u/XPbre7v79ffu7r6wsGg3l5efqKmRJvfr6k7u5uuc3y8vLGxkZDbLIbb7yREKI/yZYrJst0Usxlyo1Jy7RBk+zVpeZGphI1bm5Mwm9/+1t9iL/P5/N4PMmxmY7LhHmxkVIP2dwkkmHC5KRkynkpGAzKJQ0n0SQPzTd4qcfV2NhYXl4ub447Ojrk5/r6ehk7HTmfyeT2ZZ4bk5P2pFzhjPJ4PNu3b5f92W6//XZCyIoVK4wLXQrzFKY9ZAAAuPoJIczmmjPX2dkZCoVuvfVWQsgtt9zS29s7wZ+Bnp4eORWVlNq8MIWu5L6mnMPhMAZdhkmfr+vV5LL3ipWotra2+vr6l156KRqNrl69OhAIJA9auF6ZnJRJ5Lx5Hk5ig9ex6y83XC7Xrl27lixZMjAwMDAwMDg4aFwCAACAEEIIpYQZwy7FgQMHli1b5vV63W63oW+J2+3WP+fn5+sDlEOhUF5ent5RobOzc0oeqKc1kX3l5+cbQkwSfyUFg8GlS5emndQhGAwWFRXJzx6Px+12nzt3To81SbzJ+bpU58+fl0Ma5J+TeJ2IodHjCjPJXhOZStQ05UZfX9/TTz+9ZcsW2a1oIh2ZTJgXm2mS9vuViclJyZTz48qUh5Pe4CRcyZyf3L6uZG6YmFziM1mxYoXT6Xz22Wdlx7kPPvjAuAQhmb56mVxmCj+XF1cAAMC4EvG4smDhF05/NE5bQerMCtKFCxeqq6vdbvesWbOeeOIJ/ea7urpaVVV583HfffdVVFQcOnRIH9NfVVW1fPny3Nxct9u9fPlyzrk+XnwS9DHQ8k/DYG7zfX3jG9+45ZZbvvSlL5WUlKxZs0ZOn2CeeHM+n++JJ54wHxg9Qaqq3nHHHdXV1YsWLSopKSkrK/vyl78sqzF5eXmrVq0qKSm55ZZbvve97+Xk5PziF7/QR/eaJD7t+ZJjnb/2ta/NmjXr1KlT+ihnqbS0dMmSJbIAhMPhSCSyaNGi48ePnzhx4hvf+MayZcusVuvixYurqqqS5xIwPymc8zVr1hQXF990001lZWXLly9/++239T2auALZa54bmUqUeW5kykO5wUy5sX37dpmwsrKyb3/723PmzDl48OAEMyqtTMVm3EOetLTfL5PcyHRS5NbS5rx5YTPPw0wbvBxpJ5OY2pyXWXf8+PGPP/64rKxs7969ZWVlixcvlnMJTHpfk8gNk1NpclIyhUwu8Sa54XK51qxZo6qqnNzl1ltvnTdvnqqqJ06ckIeW6atnclyZUjiRQ/b7/ffffz+mWwAAuArNWzCP0Ul3myOkr6+vt7fX7XandsEaHh4eHBxsaGiorKzs6elpamqS4W1tbbt3787Pz9+0aVNDQ0NdXd0lPUW+JOPua8+ePaFQqKKiQk7DqsuU+AlKOyT3UsnEDw0NyeQlp7ClpaWjo8PtdsvA3bt3J+/RJPFpz5cc6yxblpJHOUu1tbX6SGi3261/lrkXDAZra2vr6uou6Te+u7tb9smRx7V48WLjEqamNXvNc8OkRBlyI7lpziQPTXLD4XDIkMrKyoKCgo6Ojst8NUqmYmN+yJcj7ffLJDcynRTznDdhkoeT2+DkXMmcn9y+JpcbJqdyciaX+Ey6u7s7OjqWLl3a0NBQUVEh5zspKSlZu3atvkDar57JcWVK4UTIWpycsQMAAK4qqqrQ0oqV773z33NYXaq6urra2lq/35/8wyDf4aCPl722XE7iA4FAQUHB5zjeY9zEpz1fl09utrW1dSLD0Cftc89eAAAAALjO3H7nbZMcR+T1ev1+/759+2pra3t6eqb29vqadnWO352O81VXV+fz+Xw+X3Nzc21tbSgUSp28bspdndkLAAAAANcoyhgjhBqDJ2DZsmVLly4Nh8Otra2X2VPieuLxeK7OW/bpOF/FxcWyt0l+fn5PT8/GjRune/K6qzZ7AQAAAOAaJYigJatXHj00+V5zAAAAAAAA16iVZSsn2WsOAAAAAADgWkcpZZOfaQ4AAAAAAOBaJihhlzH5NgAAAAAAwDWMa5qywD0/dGqcN/FdEzZv3jx79uxLfXen1+v94Q9/+Fd/9VfDw8PyfRF1dXX19fVlZWX6i/wAAAAAAOC6dMOCedfJOKLS0tJ169Y99NBDhnCPx+P1eg2Burq6uoaGBpvNNjAwcPbsWRl48uTJgYGBoqKiXbt2lZaWGtcBAAAAAIDrBaWUln799vf+/Q/GmGtQc3PzsWPH9HfSSz6fr7Kysry8PDlQ8ng8gUCgp6cn7WzULperqalpzpw58k07xmgAAAAAALj2fa1sBSPM7H1EPp/P4/EYQwmZdNT02bJli6E6ZO6BBx4ghDQ1NRkjCCGEhEKh5557zul0VldXG+MAAAAAAOC6IISgpd8oee/to8aYT7W3tzudzr6+vrfeequlpeXyo8z5fL7Vq1c7nc5QKNTe3i7Xlc01hJANGzbItp1du3YdO3Zsy5YteiuQXL2vr6++vl7flB6u6+joaGxslJ/37dsXDof15dNqb28/cuRI2kYkAAAAAAC41t1aulxxF7k/PvGxMeZT//t//29Kqcvluueee77zne8sWrTo448/lvMNTC7KhKzDvP766y+//DLnfN26daOjo3/4wx/C4fCpU6fuu+++G2644c0333z88cdVVfX5fOFwmBAyPDx89OjRgwcPlpWVDQ0Nvfrqq3JrMlxV1QULFvj9/oMHDx48ePCtt97Sk7Fly5Z33nnnzTff/EwiPuvOO++02+36NgEAAAAA4Hoy74vzaNndZYd/f9gYk8Lj8axdu1Y24BiG5UwuKlVbW1t/f7/eIBMIBKLRqGwI0utL+/fvr6io8Pv9nZ2dn1mZkK6uruQ2IslkHFFXV1dyk1FagUCAEGLejgQAAAAAANeoZcXLGKNm44gkj8ezZs2alStXOp3OYDB4+VFpuVyukpKSrk95PB6bzabHNjY2BoPBioqK/fv3p1aHAAAAAAAALhkXjJrWiOrq6pqbmwOBQFVVVX9//yOPPCIH80w6ylxPT48/SWtra3Ks7CY3VcLhcH5+vjH0s5xOpzEIAAAAAACuH4JxrhkDk9TW1tpsttbW1qqqqoaGhu7u7suMMhEKhfLy8jqTJK8o56+TveZMXjGUVtqJ744dO1ZUVGQMTeJyudxu98DAgDECAAAAAACuC0IIZcGXvvDxR6eNMZ/q6enZu3fv4cNpBhpNLspcVVXV8uXLc3Nz3W738uXLOedyIoTS0tL6+vqOjo4nnniipKTkjjvu6Orqkk1GpaWlS5YsWbRoUVlZWTgcjkQiixYtOn78uNwg53zNmjXFxcU33XRTWVnZ8uXL3377bRlVWFi4atWqU6dO6Qsb/PCHP1y8ePHPf/7zEydOGOMAAAAAAODad0OhixZ/feX7/95njPmc1NTU3HvvvW63W/Zq27lzZ3d3t/ns24FAILUJKHkqhbq6uqqqKpfLRQjp7e3Vp2qQE3DPmTPnpz/9aerApM2bN69bty7T+1sBAAAAAOA68NWv3UKL71zx/n98YIzJDi6Xa+fOnR6PR699yRpUbW0tIWT//v07duwwrgMAAAAAANeLr37tFnrbHcv/2HvMGJNNSktLPR5Pd3d3X18fIcTr9ebm5r733nvyTwAAAAAAuF59dfkttPiOr73f+5/GGAAAAAAAgOvdkuVfYYSYzb4NAAAAAABwvaJEMMpQIwIAAAAAgGxECRnnDa0AAAAAAADXK6EJRikzBgMAAAAAAGSBWCzOCBHGYAAAAAAAgGxACWMMbUQAAAAAAJCNVEVFdQgAAAAAALIUUxhjmFkBAAAAAACyEyOM4n1EAAAAAACQlTgRTAjMrAAAAAAAANlJYGYFAAAAAADIVpQyQdFGBAAAAAAA2YhRyjCMCAAAAAAAspMQAnPNAQAAAABAthKCYWIFAAAAAADIVpRxwY2BAAAAAAAA2QETzQEAAAAAQLYSAm9oBQAAAACAbIW55gAAAAAAIGsJtBEBAAAAAEDWopQyQTDZHFyrRkZGjEEAAAAAABNGMbMCAAAAAABkM4YWIgAAAAAAyE6UMkbphJqJvF5vc3NzIBAoLS01xk2/urq6QCDg9/s9Ho8xbkp5vd7P6xgn6FJT6HK52tvba2pqjBGf5fV6uz7L5/MFAoHkkLa2NuNqhBBCAoGA1+uVn2tqaurq6uTn0tLS5ubmzyyaoq6ubvv27cZQAAAAAIArghLCiBi/laiurq6hocFmsw0MDJw9e1YGBgKBQCBgXHR6nDx5cmBgoKioaNeuXROvDExCZ2dnQUHB2rVrjRFXjUtN4WOPPXbkyJG77rrL5XIZ4z6ro6OjvLy8r6+vvLzc7/cTQurr68s/1dvbe+DAAeM6Kdra2qqqqmTF9e677z58+LBxic8qLi5+4YUXjKEAAAAAAFcEpZSNO7GCx+Opra3t6empr69vbGzs6+szLjH9Ojs7GxsbN27cODQ0tG3btnFv7nWyaUtv4vD5fMYlUrz77rslJSVpG6Nky4n+55WsEyYzSaGB3++PRCINDQ1vvfVWU1PTRFYx2LdvX2lpqc/ni0QiTz/9tCF2+/btgUDA7XavX79+37598rzU1NT09fW5XK6ioqKWlhbDKsm8Xq/H40luiZrW6i4AAAAAgAEXhNHxJt9+4IEHCCFNTU3GiCsuFAo999xzTqezurraGJdOTU1NQ0NDfn7+7t27/X5/f3//6tWrx60V/PznPw+HwxNvhLnyJpJCWdMghDQ0NBBCWlpa9uzZs3Pnzs2bNxsX/VRlZWVXV5fH4+nq6pJrEUL27Nnz8MMPz58/Xw9JtmPHjvr6+qqqqueee25wcLC6ulrWEgOBQFNTk8PhkJ8z1XPWr1//yCOPyDao+vr6UCjU3d1tXIgQQojP5xv3xAEAAAAATAIjfJxGovnz5/f19YVCIWMEIbKVoKurq7293e/36003+qCUtra25HA5rMXn87W1tenNAvqwE3nj297eLldMDtd1dnaGw+Gbb77ZGJHOd77znWAwuHXr1ra2ts7OzoaGhtra2uQ2rs2bN3d1deljYKRQKHTkyJHVq1dPvCVqcsel51Jzc3NdXZ1cQB9UY7JB8xTKFXfu3Pnb3/42uRrT3d29cePGBQsWyDSkrpvaa06utWvXrvnz56cun2z9+vV79+5taWmpr6+vr6//5S9/+f7779fU1Mg/09Zz/H7/+++/r0d997vfHR4eNi70qdWrV8vKVdpSAQAAAAAwOZRSJgQ3Bn+W2+0eGBgwhhJCCCkoKJg9e7bf729vby8pKdm6dasM//DDDzs6Ojo6OgYHB0tKSnbu3Kmv8v3vf7+ysnJwcFAu0NHRod8T+3y+ysrKAwcO+P3+d999t7a2Nu18AMFgMC8vzxiawuv1ulyu/fv3J9flDPW6BQsWEEIKCwuTAwkhe/funXhLlDSJ4zp06JDf7w8Ggzabrbi4uKWlZf/+/RUVFbKGZrJBkxS6XK6f/exndrt948aNd911l16bkmT96tlnn7355ps3btxoWDeVXOupp55yuVxy3bQVEp/P19/fL6uast6yfv36lStXys9pJ07w+/15eXmNjY3yT5fLVVxcXFBQkKneVVVV1draGo1Ga2tr29vbt2/fjiYjAAAAAJgCVNCvf6Pk398+aoxI0tXV1dHRod+86gKBQEFBgV5p8fv9S5curaqqMiy2efPmdevW1dTUyNpIIBDweDz6n8na2tr6+/v1Zo1AIBCNRrds2WJYTHYGq6+vN4QbeL3ehoYGv9/f2dlpjEvi9XrTLtDc3Dx//nxDlcyQFckpmfRxyRUfeeSR7u5u2dVN7sJkg1LaFKYVCAQmmF3JIfqRyqFTjY2NbW1t27ZtMwwkq6urq62tDYVC7e3t+qghr9e7bNmy1DIjeb3e9evXb926VT80n8+Xn58fiUSCwaD50COPx7N27drVq1c7nc7y8vKRkZHc3FzjQgAAAAAAE7Ns5S0Tmno7k+RuTmfPnnU6nfKzx+ORY+4DgcDtt99OCFmxYoWM+u1vfysrCYFAwDA4xOVylZSU6A0aHo/HZrPpsdMkbXVI1gdcLtdE6hvSZR6XbP+RPdZkRcJkg9KlptBcZ2enHM8j06AnQ+f3+w8cOGCoDvl8voqKimAw+OKLLxYXF2caL2TQ2dm5YcMGvTrk8XhWrlzZ1NT0m9/8pqKiwrh0Eo/Hs2bNmpUrVzqdzmAwaIwGAAAAALh0TIw32Vw4HM7PzzeGprDb7fKDy+XatWvXkiVLBgYGBgYGBgcHkxdra2urr69/6aWXotGoHBySfE/f09PjT9La2pq8rqTXuyYitUfcBHV2dgaDwbvuussYkcHlH5eB+QbNU6jXvvQ6mCEkdc49n89nWNjw9qFDhw4Z5pqTPdy2bt0aDodHRkbq6+tra2v37dtn6DXX3t6eujudy+V69NFH29vb5bQK4XA4bce8uro6+Tqsqqqq/v7+Rx55ZMOGDcaFAAAAAAAuFSVMjPc+omPHjhUVFRlDP0uOA+nt7ZXNQU6n89lnn21sbGxsbPzggw8MC/f19T399NNbtmypra0lhJSVlcnwUCiUl5fXmSR1RL7L5TIZ15RMzsFQVVWVaWiKZJhWIdn+/fs9Hk9yu0c4HF64cKH+Z0FBgf75Mo8rrUwb1KWmUCovL5ezGhiafWpqanbv3p3a/iM7xRkWNgw0Sn09aygUamxsTO7UV19fv2HDhvr6+ueee+7dd9+V0ypUVVWl7k5yuVxNTU2Dg4N6T7nW1taamprUU1ZbW2uz2VpbW6uqqhoaGiaYgQAAAAAA41K+eOOCjwfTj1SRCgsLV61aderUqePHjyeHV1dXO53OSCRy5513/uAHP3A6nU888cTQ0JDL5VqzZo2qqqqq3nnnnbfeeuu8efNUVT1x4sTQ0ND27dtLSkrKysrKysq+/e1vz5kz5+DBg2+//bbcZlVV1fLly3Nzc91u9/LlyznnQ0NDyTv94Q9/uHjx4p///OcnTpxIDk/LarWuWrWqpKQkLy9v3rx5y5cvv/fee9988019Ab/ff//991NK075I9PDhw9/85jfnzp37+uuvy5CvfvWrt956q8fjWbFixd/8zd986Utf+vWvfy3XncRxyd5iX/va12bNmnXq1CmXy5V8UOYblFJTqMvJyXn88cf/+Mc/Dg0NVVdXv/rqq4SQf/qnf2KMGTaiKy0tXbJkyR133FFWVrZ+/frbb79ddimUNbHkfDOorq7u6+tLLh6LFi2aN2+eySqyC9zjjz8+ODiYPH7pxIkTixYt+ta3viUTrOvp6dm7d2/qaXr00UefeuopQyAAAAAAwATd8IW5yo033nhq8GNjTJLDhw9/4xvfqKioGB4eTr7rra6uLioqKisr+/KXv3z8+HH95a0nTpy44YYbiouLKyoqZs+evXfv3jVr1ixYsEBRlDfffLOysrKiomLx4sWLFy8WQvzud7/7yU9+Ijf4hz/8YXR0dNmyZX/5l39ZVla2ZMmSt99+O7mSsHnz5rVr18qbYz3QxOHDh0+dOrVgwYJ77rmnrKzs9ttv1zQt+Vbb4/F85Stf6ezsNFT2dDfddFNFRUVPT4+smPX29rrd7qVLl37lK1+Ridc7kk3iuP72b/+2rq5u1qxZstaxYMGC5LSZbDCZIYW6cDgciUTy8vKOHz8ua0Qej2fJkiX/8i//kryYrrm5ecWKFTab7fDhw11dXf/rf/0vfYTVdNSINm/eLKc+f/LJJw1RBw4c+M53viObHMPhsAw0HJ0ONSIAAAAAuBwF8wpo2erSw4feM8Z8lsvl2rlzp8fjCYfDO3fuvPJ9luSEZrKf2I4dO4zR08blcrW2th44cCBTv6/PXWoK5WTfxuVSlJeXG4NS1NTUbNq0KRwO//SnP800BYWcy+6Xv/xl8gLmc835fL6FCxf+67/+q2GeBp3L5Xrssceef/75cUsa5poDAAAAgMvhWfZluuK2Wz/4Y/oWEoPS0lKPx9Pd3Z3pRnb6eL3e3Nzc995778rvuq6uLicnxzCpwFXl6k/h9EGNCAAAAAAux5eXLKKlZbe9d/iPxhiAawFqRAAAAABwOW5esogJOs5ccwAAAAAAANclRhgjl/WOVoDPExqIAAAAAOAyoT4EAAAAAADZixFKjWEAAAAAAABZgDHGKEGNCAAAAAAAshFVGMPECgAAAAAAkK0o2ogAAAAAACBbUcoEQSMRAAAAAABkI4UpmGsOAAAAAACyF0OnOQAAAAAAyE6CCMYFes0BAAAAAECWwjgiAAAAAADIUoIKRvGGVgAAAAAAyEqUECbQaw4AAAAAALKSEIJRiunmAAAAAAAgG1FC8IZWAAAAAADIVpQwKlAjAgAAAACA7CSY4BhHBAAAAAAA2UgIgUFEAAAAAACQrQTB7NsAAAAAAJClKCGMMTQTAQAAAABANkKvOQAAAAAAyF5cEIbJtwEAAAAAIGuhjQgAAAAAALKUEILhdUQAAAAAAJClKEUbEQAAAAAAZCnBMbMCAAAAAABkq1g0jhoRAAAAAABkKatNxVxzAAAAAACQpSjBOCIAAAAAAMhWlFFGKBqJAAAAAAAgGwkhmODCGAwAAAAAAJAFhBCMENSIAAAAAAAgGwkiGPrMAQAAAABAlhIEMysAAAAAAECWopQyhpkVAAAAAAAgK1GK2bcBAAAAACBbCUGYxWIxBgMAAAAAAGQFweLxmDEQAAAAAAAgKwgWHYsaAwEAAAAAALIDc85wGsMAAAAAAACyA9OEZgwDAAAAAADIAoIQRjD7NgAAAAAAZCVGKCMENSIAAAAAAMhKgjCKGhEAAAAAAGQlIQQjRBiDAQAAAAAAsoEgzBgEAAAAAACQHSilDH3mAAAAAAAgSwnChECvOQAAAAAAyEZMURjhqBEBAAAAAEA2iicSjHO8oRUAAAAAALIU45wbwwAAAAAAALIAUxQmKOZWAAAAAACA7MQZx8wKAAAAAACQnSjB7NsAAAAAAJCtBGEC44gAAAAAACA7UbyPCAAAAAAAshWjjBGCfnMAAAAAAJCNKKWMMWYMBgAAAAAAyA54QysAAAAAAGQrIRhGEQEAAAAAQHYSQuB9RAAAAAAAkL2Y3WYzhgEAAAAAAGQHpsXjxjAAAAAAAICswJlKMfs2AAAAAABkI0qofCURAAAAAABA9mGUCbyhFQAAAAAAshKllBHUiAAAAAAAICtRQhgnmH0bAAAAAACykSCEcc6NwQAAAAAAAFlACMHwglYAAAAAAMhSQjAFs28DAAAAAEBW4pyj1xwAAAAAAGQpjXOmxRPGYAAAAAAAgCzAKGU2m9UYDAAAAAAAkAUopUxg9m0AAAAAAMhKjDBGMLMCAAAAAABkJcYYQwsRAAAAAABkJ0op2ogAAAAAACBLUUrQRgQAAAAAANmLGQMAAAAAAACyg6ZpaCMCAAAAAIDsxQRHnQgAAAAAALKREIJhXgUAAAAAAMhOnHPGKIYSAQAAAABAVqKCEYJWIgAAAAAAyEaUUCZQIwIAAAAAgKxkVayMYiQRAAAAAABkJUVhjHNuDAYAAAAAAMgCQnC0EAEAAAAAQJbiRDCqoE4EAAAAAADZiFLKBHrNAQAAAABAdqKUaagRAQAAAABAVorHE4xhJBEAAAAAAGSlhKYxIdBGBAAAAAAA2YgxhXGuGYMBAAAAAACygCCUUYpecwAAAAAAkI2EEAyd5gAAAAAAIEsphAkhjKEAAAAAAABZgFLKCCpEAAAAAACQlQTnjFJmDAYAAAAAAMgClFAmNAwkAgAAAACAbMQIYQpDGxEAAAAAAGQjwTnD3NsAAAAAAJCdKKWoEQEAAAAAQJZSKWUqU4zBAAAAAAAAWcCqKsxmtRiDAQAAAAAAsoBCCGOYWQEAAAAAALKS0DTGGF7RCgAAAAAA2SjBCVMtaCMCAAAAAIBsFEtoqA4BAAAAAECW0ghlFgtmVgAAAAAAgGzEKWMKZlYAAAAAAICspBHComNjxmAAAAAAAIAsQCljioI3tAIAAAAAQDaiCmGEGkMBAAAAAACyARMCb2gFAAAAAIAspVDBCEUjEQAAAAAAZCObQpgmuDEYAAAAAAAgCyiUMI2jRgQAAAAAANnIqqosqmnGYAAAAAAAgCwghGCJBGpEAAAAAACQpRgRwhgGAAAAAACQDSihd3lXaUK7ODom4sRipXPmzxgeHotGNIVQhVhmzLbZZnOWw0dDkYshrnALUQjhIhHnhFBGKGMKUandInK/6LiYuDh6IqHGVZvVIRihQqNEoVTlQhBKhRBccEGIEIJSSgmRVTFFUWJaNME5pZQQSgjhPMEYJVwTmmCEJRKaalGowgSlghLChYgnbHaralPDsYjDYSOcx6IxIlTBhRCCECo44ZoQXBBCGSMKo5RRpjJCKBckEYurKuOCq6pCCCGCcCEzgwohhBAyZZQQIQQhhCoKpSShaVzjlFKLqhLBFUY1LaFpnAjBNS4XTM5ZQYiiKKpFJUIk4gmLohAhCBGcEi44JYQySilhlKgWlVFCKVEUKojQhOBccEE0LgQnTLFQyuLRRCwWUxVVpkoIzoVghFLKCCHkv7NTJllQplCFEMIFFwpVVaZarcoc10yLlQkmLoxcDA2NqNSSiCXkjhWLyjUtcjFiVWVWf3IwWoJrGlcotVotCS1BiFAUiyAiEeeUCIuq2CyqIrhVVWxWlVAaiUWj8bigiqBsdDQiOBWEKSq1WJmmJYRGEzGuKMxqVxijXAgiKBGfFglKGKWqqioKiyfiXNMUVbE67edHL9ht6sXzUUKYyhhjREtwLoiiMs65I8cei8eEJgSnibjGCJWYwiijmiaHyQlBhOBcVVWLxcI5F4QQOacIpTLLPjnfglBBGSE2q2qzMYfDHo3GRi6OUUUllMqtEEoZY4IQSihjlDIWi8a4llAVlRGSiMeEplkYUyhl9JMFKKWEEsGFarVYbbaLkUgkGuWCKqqqqBZVVYTgQghN0xSFJRUkEY/HKSWcC64JTdMIIQpjqqrKci4XZIwRSiORiMKYxWqJJ+JWi1XjXJZlwighRFUVSkR0LMoIEYIojAlBiCCCc41rlBLGmN3piEZjY7G4zWblnNvs1kQ8RoRghGoJjXBC5FEQwhizWVS7QkU8rjBGFYUwJoRw5jhHwuFoQgjKuOA2u10QEY/Fx8aiqqJo8YTgnCrUbreHIxGrRbVYLEQITUsIQjkXlDFGmdVqCYcvWhSVEyEI4Zw7c5yxeCwejzOFqYpKKbNYVMFFNBqTh0gotVhUSomWiH1yERGEc6FaLBaLjZBELBbjGiGEalyT30pVEeHRME9QpiiECIfdanfaL46ECWOKymKxmMKsTkdOLBYejYzOyp85FolxwVU14bAr589rTCjRsSihlFE6t6BgbPSiIMRut2pcC0e13NyZZ88P2x1WLaYxwgQhMS1BCJkxY0Y0NhaNRlVFsVptisooZdFoNBFPMEZV1WK1Oaw2q4USIngkOnbu7AWrw+7McfJEXFEoF8SiWhlT4vG4IEIIYbPaCeeJ2JjTro4lYuFoLJHgTFEUVRVCY4xRQsPhMYfDqmnxnBlWhXFNixMiFIUxhQqeoEwoTGGUEkIoYQpRmMIIFUQQIiyUqEJQIQShCSLigmiEckEEI4wQeuH8GCMWLjSrnVjtTAgqCCWECSK4Zjk7HI1EEqpCKaGJuMY5JYJRJTF77oxYIqEoFk6o/IoQIeLxGGNUCEEJ1RIJrmk5OXZGCedKOBoVVOQ4nLFIOD8v/9y5C3andTQSYVSd6cy9cP6CJoTFbtU4TyRiM2c4E4kYU9nZcyMWq/2TqyylnGuCi0Q8Lii1WqyEEsZYIp6wWm2JWDwWjdFPfqEEUxRCic1mTcQTFqslEU8QQiKRMdWiWi1WQihllDH26TYJESIyNiYEz8nJURT1wvkLQhB5XWOMWSzWsUh89GKCMUYZU1ThzLEKWRYJs1ltZ8+O5OdbLBYlGotzweIJzrmwWu2axjnnQnBFUbSEJn+TBCGUUvk1EUKoijI2NsY1TV4EVIs1Ho8RQm02u8Y1rgnOOSGEMYVSwgUhnBNGqEpzcmyJqDY2GhMkQVXF6ZwxNhqxWNSxyJimaYQIpigWq1VR1VgsxjkngsgfXlVVKRVjY1GHw5abmzN6McJ5wmqzRqPxmTNnnrtwgTCWSGgWRY3FYoQQi0WxWq1c0xKJhMIUrnH5E0UplQcjhCCUUkK54LF4nBBaWDh3eGiIUiYE4VxQyggRlDFFYUJwRWEOm/3ihYvyl5opzGK1jI2NqaqqaVoiwYmgnAtKiRDi09PEGaOMMUVRorGo1WrjXBNEfHKhkJdRRuVlhAiSSCRkolRVZYwKIuKJuNPpZILF4wmZfkVVeSLBKBHikxLGFEWLJ6JjY0IQ+eugcY0xSihRmEIZZQoVgqiqyrngCU4IIYLIq7TcAqFUMEoosTLFaXeER0fDYxFCqSxyKlM0rnFNs6gWVVHi8bj8haCMMEURXMQTCc45ZZQo3OG0MUYj4RhPEEZVQYRFVQURiURcXvbjCY0x1WJVGSOxWJwnOCVEcEEpsVotVFESWkLTuNNhj41FOeeEUdVm0RIaEURwIRNPGSWUUsYsFjUeT8gvLyWfFFXOuZzHmFJGGZVFV1WVRCwRj8UpoVzeNMkiTQklVBDOFIUpTFUVQkksFrPZbISQ2FiMcyHPEGFEMGG12uKxuKoypnDCOY8LoRGb067xBBHyIT9VFHUsGiWEci4450IIeb4/SRT9dJZlGUio/BLJX7pPf1X0HxNBCGGKXJPIr3I8FlNUNZFIcM4VhTBF5UIIzhKaJu+NCSXs0/d9KkzlnMdiMVVRCBUKJapCFIuq2i2xaIwIonEiKGNc4TLrqeCCqIpitVo1nmCUymznQlBGFaYSSongeiEXXFCFyvuaT46NEoUKLRGP8oTD7tCiMcJFLBoXglBKrA67hakiFqdEMEoSibjgnBJCKVUUFovzREJwQRijVrtNtahckHg8wTVBCInF44RSIfind8qfXJlksWCMKIwxxhhllDKuaYTIXwaZ359kP/mkOiAIJQqljBCFKQmuUcqEfo2jihZPyH3E4zFCqaCUKExQIgi3WJiqKIQLTQgiKBVCaAmhceWT6zNJcE1hjBIqEgkiiMJYQuOKRbXYHAkhovE454IQoTCqMkoEp5wzQv5/Bvsn1msA+bkAAAAASUVORK5CYII=;" vertex="1" parent="1">
          <mxGeometry x="20" y="290" width="1115" height="305" as="geometry" />
        </mxCell>
        <mxCell id="H2uzbaCQYZfJrmvzTozJ-2" value="" style="endArrow=none;html=1;rounded=0;strokeColor=#33FFFF;strokeWidth=5;" edge="1" parent="1">
          <mxGeometry width="50" height="50" relative="1" as="geometry">
            <mxPoint x="249" y="378" as="sourcePoint" />
            <mxPoint x="310" y="378" as="targetPoint" />
          </mxGeometry>
        </mxCell>
        <mxCell id="H2uzbaCQYZfJrmvzTozJ-3" value="" style="endArrow=none;html=1;rounded=0;strokeColor=#33FFFF;strokeWidth=5;" edge="1" parent="1">
          <mxGeometry width="50" height="50" relative="1" as="geometry">
            <mxPoint x="60" y="438" as="sourcePoint" />
            <mxPoint x="121" y="438" as="targetPoint" />
          </mxGeometry>
        </mxCell>
      </root>
    </mxGraphModel>
  </diagram>
</mxfile>
